{
  "accessors": [
    {
      "bufferView": 2,
      "componentType": 5126,
      "count": 4407,
      "max": [
        2.51304292678833,
        9.999999974752427e-07,
        0.9848210215568542
      ],
      "min": [
        -1.3818919658660889,
        -4.002933025360107,
        -0.9848210215568542
      ],
      "type": "VEC3"
    },
    {
      "bufferView": 2,
      "byteOffset": 52884,
      "componentType": 5126,
      "count": 4407,
      "max": [
        1.0,
        1.0,
        0.9989565014839172
      ],
      "min": [
        -1.0,
        -1.0,
        -0.9989565014839172
      ],
      "type": "VEC3"
    },
    {
      "bufferView": 1,
      "componentType": 5126,
      "count": 4407,
      "max": [
        0.9965819716453552,
        -0.0042420001700520515
      ],
      "min": [
        0.0029299999587237835,
        -0.9765629768371582
      ],
      "type": "VEC2"
    },
    {
      "bufferView": 0,
      "componentType": 5125,
      "count": 4542,
      "type": "SCALAR"
    },
    {
      "bufferView": 2,
      "byteOffset": 105768,
      "componentType": 5126,
      "count": 72,
      "max": [
        2.3743810653686523,
        -1.2531260251998901,
        0.7616519927978516
      ],
      "min": [
        1.8488249778747559,
        -1.9705959558486938,
        -0.7616519927978516
      ],
      "type": "VEC3"
    },
    {
      "bufferView": 2,
      "byteOffset": 106632,
      "componentType": 5126,
      "count": 72,
      "max": [
        0.7046060562133789,
        0.38027507066726685,
        0.9297550916671753
      ],
      "min": [
        0.36648502945899963,
        -0.1007780134677887,
        -0.9297550916671753
      ],
      "type": "VEC3"
    },
    {
      "bufferView": 1,
      "byteOffset": 35256,
      "componentType": 5126,
      "count": 72,
      "max": [
        0.421875,
        -0.007813000120222569
      ],
      "min": [
        0.0820309966802597,
        -0.2421880066394806
      ],
      "type": "VEC2"
    },
    {
      "bufferView": 0,
      "byteOffset": 18168,
      "componentType": 5125,
      "count": 72,
      "type": "SCALAR"
    }
  ],
  "asset": {
    "extras": {
      "author": "nguyenlouis32 (https://sketchfab.com/nguyenlouis32)",
      "license": "CC-BY-4.0 (http://creativecommons.org/licenses/by/4.0/)",
      "source": "https://sketchfab.com/3d-models/turtwig-3dfd41152275450c923438e8e783ad91",
      "title": "Turtwig"
    },
    "generator": "Sketchfab-13.41.0",
    "version": "2.0"
  },
  "bufferViews": [
    {
      "buffer": 0,
      "byteLength": 18456,
      "name": "floatBufferViews",
      "target": 34963
    },
    {
      "buffer": 0,
      "byteLength": 35832,
      "byteOffset": 18456,
      "byteStride": 8,
      "name": "floatBufferViews",
      "target": 34962
    },
    {
      "buffer": 0,
      "byteLength": 107496,
      "byteOffset": 54288,
      "byteStride": 12,
      "name": "floatBufferViews",
      "target": 34962
    }
  ],
  "buffers": [
    {
      "byteLength": 161784,
      "uri": "scene.bin"
    }
  ],
  "images": [
    {
      "uri": "textures/NaetleDh_baseColor.png"
    },
    {
      "uri": "textures/NaetleEyeDh_baseColor.png"
    }
  ],
  "materials": [
    {
      "doubleSided": true,
      "name": "NaetleDh",
      "pbrMetallicRoughness": {
        "baseColorTexture": {
          "index": 0
        },
        "metallicFactor": 0.0,
        "roughnessFactor": 0.6
      }
    },
    {
      "doubleSided": true,
      "name": "NaetleEyeDh",
      "pbrMetallicRoughness": {
        "baseColorTexture": {
          "index": 1
        },
        "metallicFactor": 0.0,
        "roughnessFactor": 0.6
      }
    }
  ],
  "meshes": [
    {
      "name": "Object_0",
      "primitives": [
        {
          "attributes": {
            "NORMAL": 1,
            "POSITION": 0,
            "TEXCOORD_0": 2
          },
          "indices": 3,
          "material": 0,
          "mode": 4
        }
      ]
    },
    {
      "name": "Object_1",
      "primitives": [
        {
          "attributes": {
            "NORMAL": 5,
            "POSITION": 4,
            "TEXCOORD_0": 6
          },
          "indices": 7,
          "material": 1,
          "mode": 4
        }
      ]
    }
  ],
  "nodes": [
    {
      "children": [
        1
      ],
      "matrix": [
        0.0,
        -1.1102230246251565e-16,
        1.0,
        0.0,
        -1.1102230246251565e-16,
        -1.0,
        0.0,
        0.0,
        1.0,
        -2.2204460492503128e-16,
        -1.110223024625157e-16,
        0.0,
        0.0,
        0.0,
        0.0,
        1.0
      ],
      "name": "Sketchfab_model"
    },
    {
      "children": [
        2,
        3
      ],
      "name": "Naetleout.obj.cleaner.materialmerger.gles"
    },
    {
      "mesh": 0,
      "name": "Object_2"
    },
    {
      "mesh": 1,
      "name": "Object_3"
    }
  ],
  "samplers": [
    {
      "magFilter": 9729,
      "minFilter": 9987,
      "wrapS": 10497,
      "wrapT": 10497
    }
  ],
  "scene": 0,
  "scenes": [
    {
      "name": "Sketchfab_Scene",
      "nodes": [
        0
      ]
    }
  ],
  "textures": [
    {
      "sampler": 0,
      "source": 0
    },
    {
      "sampler": 0,
      "source": 1
    }
  ]
}
